<mxfile host="app.diagrams.net" agent="Mozilla/5.0 (Windows NT 10.0; Win64; x64) AppleWebKit/537.36 (KHTML, like Gecko) Chrome/136.0.0.0 Safari/537.36" version="27.0.6">
  <diagram name="Página-1" id="jJYi8yPenUNQ3yc8LZsr">
    <mxGraphModel grid="1" page="1" gridSize="10" guides="1" tooltips="1" connect="1" arrows="1" fold="1" pageScale="1" pageWidth="827" pageHeight="1169" math="0" shadow="0">
      <root>
        <mxCell id="0" />
        <mxCell id="1" parent="0" />
        <mxCell id="E6k3J_O9naYXyknP14Ad-1" value="" style="whiteSpace=wrap;strokeWidth=2;" vertex="1" parent="1">
          <mxGeometry x="935" y="140" width="1933" height="292" as="geometry" />
        </mxCell>
        <mxCell id="E6k3J_O9naYXyknP14Ad-5" value="Sistema" style="ellipse;aspect=fixed;strokeWidth=2;whiteSpace=wrap;" vertex="1" parent="1">
          <mxGeometry x="1118" y="20" width="71" height="71" as="geometry" />
        </mxCell>
        <mxCell id="E6k3J_O9naYXyknP14Ad-6" value="Enviar Notificação por Email" style="whiteSpace=wrap;strokeWidth=2;" vertex="1" parent="1">
          <mxGeometry x="1023" y="172" width="260" height="78" as="geometry" />
        </mxCell>
        <mxCell id="E6k3J_O9naYXyknP14Ad-7" value="Receber Notificação de Nova Solicitação" style="whiteSpace=wrap;strokeWidth=2;" vertex="1" parent="1">
          <mxGeometry x="1953" y="330" width="260" height="78" as="geometry" />
        </mxCell>
        <mxCell id="E6k3J_O9naYXyknP14Ad-8" value="Receber Notificação de Aprovação/Rejeição" style="whiteSpace=wrap;strokeWidth=2;" vertex="1" parent="1">
          <mxGeometry x="1333" y="330" width="260" height="78" as="geometry" />
        </mxCell>
        <mxCell id="E6k3J_O9naYXyknP14Ad-9" value="Receber Notificação de Viagem Agendada" style="whiteSpace=wrap;strokeWidth=2;" vertex="1" parent="1">
          <mxGeometry x="2263" y="330" width="260" height="78" as="geometry" />
        </mxCell>
        <mxCell id="E6k3J_O9naYXyknP14Ad-10" value="Receber Alerta de Viagem Próxima" style="whiteSpace=wrap;strokeWidth=2;" vertex="1" parent="1">
          <mxGeometry x="1643" y="330" width="260" height="78" as="geometry" />
        </mxCell>
        <mxCell id="E6k3J_O9naYXyknP14Ad-11" value="Receber Notificação de Conclusão" style="whiteSpace=wrap;strokeWidth=2;" vertex="1" parent="1">
          <mxGeometry x="1023" y="330" width="260" height="78" as="geometry" />
        </mxCell>
        <mxCell id="E6k3J_O9naYXyknP14Ad-12" value="Gerenciar Preferências de Notificação" style="whiteSpace=wrap;strokeWidth=2;" vertex="1" parent="1">
          <mxGeometry x="2573" y="330" width="260" height="78" as="geometry" />
        </mxCell>
        <mxCell id="E6k3J_O9naYXyknP14Ad-13" value="Formatar Conteúdo&#xa;da Mensagem" style="whiteSpace=wrap;strokeWidth=2;" vertex="1" parent="1">
          <mxGeometry x="640" y="330" width="260" height="78" as="geometry" />
        </mxCell>
        <mxCell id="E6k3J_O9naYXyknP14Ad-14" value="Registrar Envio&#xa;de Notificação" style="whiteSpace=wrap;strokeWidth=2;" vertex="1" parent="1">
          <mxGeometry x="330" y="330" width="260" height="78" as="geometry" />
        </mxCell>
        <mxCell id="E6k3J_O9naYXyknP14Ad-15" value="Atualizar Configurações&#xa;de Usuário" style="whiteSpace=wrap;strokeWidth=2;" vertex="1" parent="1">
          <mxGeometry x="2573" y="505" width="260" height="78" as="geometry" />
        </mxCell>
        <mxCell id="E6k3J_O9naYXyknP14Ad-16" value="Reenviar Notificação&#xa;em Caso de Falha" style="whiteSpace=wrap;strokeWidth=2;" vertex="1" parent="1">
          <mxGeometry x="20" y="330" width="260" height="78" as="geometry" />
        </mxCell>
        <mxCell id="E6k3J_O9naYXyknP14Ad-17" value="" style="curved=1;startArrow=none;endArrow=block;exitX=0.5;exitY=0.99;entryX=0.5;entryY=0;rounded=0;" edge="1" parent="1" source="E6k3J_O9naYXyknP14Ad-5" target="E6k3J_O9naYXyknP14Ad-6">
          <mxGeometry relative="1" as="geometry">
            <Array as="points" />
          </mxGeometry>
        </mxCell>
        <mxCell id="E6k3J_O9naYXyknP14Ad-18" value="" style="curved=1;startArrow=none;endArrow=block;exitX=1;exitY=0.69;entryX=0.11;entryY=-0.01;rounded=0;" edge="1" parent="1" source="E6k3J_O9naYXyknP14Ad-6" target="E6k3J_O9naYXyknP14Ad-7">
          <mxGeometry relative="1" as="geometry">
            <Array as="points">
              <mxPoint x="1890" y="293" />
            </Array>
          </mxGeometry>
        </mxCell>
        <mxCell id="E6k3J_O9naYXyknP14Ad-19" value="" style="curved=1;startArrow=none;endArrow=block;exitX=1;exitY=0.69;entryX=1;entryY=0.19;rounded=0;" edge="1" parent="1" source="E6k3J_O9naYXyknP14Ad-6" target="E6k3J_O9naYXyknP14Ad-8">
          <mxGeometry relative="1" as="geometry">
            <Array as="points">
              <mxPoint x="1870" y="293" />
            </Array>
          </mxGeometry>
        </mxCell>
        <mxCell id="E6k3J_O9naYXyknP14Ad-20" value="" style="curved=1;startArrow=none;endArrow=block;exitX=1;exitY=0.7;entryX=0;entryY=0.26;rounded=0;" edge="1" parent="1" source="E6k3J_O9naYXyknP14Ad-6" target="E6k3J_O9naYXyknP14Ad-9">
          <mxGeometry relative="1" as="geometry">
            <Array as="points">
              <mxPoint x="1850" y="293" />
            </Array>
          </mxGeometry>
        </mxCell>
        <mxCell id="E6k3J_O9naYXyknP14Ad-21" value="" style="curved=1;startArrow=none;endArrow=block;exitX=1;exitY=0.87;entryX=0.02;entryY=-0.01;rounded=0;" edge="1" parent="1" source="E6k3J_O9naYXyknP14Ad-6" target="E6k3J_O9naYXyknP14Ad-10">
          <mxGeometry relative="1" as="geometry">
            <Array as="points">
              <mxPoint x="1530" y="293" />
            </Array>
          </mxGeometry>
        </mxCell>
        <mxCell id="E6k3J_O9naYXyknP14Ad-22" value="" style="curved=1;startArrow=none;endArrow=block;exitX=0.6;exitY=1;entryX=0.61;entryY=-0.01;rounded=0;" edge="1" parent="1" source="E6k3J_O9naYXyknP14Ad-6" target="E6k3J_O9naYXyknP14Ad-11">
          <mxGeometry relative="1" as="geometry">
            <Array as="points">
              <mxPoint x="1206" y="293" />
            </Array>
          </mxGeometry>
        </mxCell>
        <mxCell id="E6k3J_O9naYXyknP14Ad-23" value="" style="curved=1;startArrow=none;endArrow=block;exitX=0;exitY=0.55;entryX=0;entryY=0.24;rounded=0;" edge="1" parent="1" target="E6k3J_O9naYXyknP14Ad-12">
          <mxGeometry relative="1" as="geometry">
            <Array as="points">
              <mxPoint x="2200" y="293" />
            </Array>
            <mxPoint x="2776.1729329429986" y="89.98496235278276" as="sourcePoint" />
          </mxGeometry>
        </mxCell>
        <mxCell id="E6k3J_O9naYXyknP14Ad-24" value="" style="curved=1;startArrow=none;endArrow=block;exitX=0;exitY=0.54;entryX=1;entryY=0.29;rounded=0;" edge="1" parent="1" target="E6k3J_O9naYXyknP14Ad-8">
          <mxGeometry relative="1" as="geometry">
            <Array as="points">
              <mxPoint x="2075" y="293" />
            </Array>
            <mxPoint x="2776.097515125572" y="88.99364031789742" as="sourcePoint" />
          </mxGeometry>
        </mxCell>
        <mxCell id="E6k3J_O9naYXyknP14Ad-25" value="" style="curved=1;startArrow=none;endArrow=block;exitX=0;exitY=0.53;entryX=1;entryY=0.33;rounded=0;" edge="1" parent="1" target="E6k3J_O9naYXyknP14Ad-11">
          <mxGeometry relative="1" as="geometry">
            <Array as="points">
              <mxPoint x="1910" y="293" />
            </Array>
            <mxPoint x="2776.0434167156673" y="87.99811231671015" as="sourcePoint" />
          </mxGeometry>
        </mxCell>
        <mxCell id="E6k3J_O9naYXyknP14Ad-26" value="" style="curved=1;startArrow=none;endArrow=block;exitX=0;exitY=0.56;entryX=0;entryY=0.15;rounded=0;" edge="1" parent="1" target="E6k3J_O9naYXyknP14Ad-12">
          <mxGeometry relative="1" as="geometry">
            <Array as="points">
              <mxPoint x="2335" y="293" />
            </Array>
            <mxPoint x="3020.144149579786" y="163.98605004066576" as="sourcePoint" />
          </mxGeometry>
        </mxCell>
        <mxCell id="E6k3J_O9naYXyknP14Ad-27" value="" style="curved=1;startArrow=none;endArrow=block;exitX=0;exitY=0.55;entryX=0.81;entryY=-0.01;rounded=0;" edge="1" parent="1" target="E6k3J_O9naYXyknP14Ad-7">
          <mxGeometry relative="1" as="geometry">
            <Array as="points">
              <mxPoint x="2240" y="293" />
            </Array>
            <mxPoint x="3020.144149579786" y="163.98605004066576" as="sourcePoint" />
          </mxGeometry>
        </mxCell>
        <mxCell id="E6k3J_O9naYXyknP14Ad-28" value="" style="curved=1;startArrow=none;endArrow=block;exitX=0;exitY=0.55;entryX=1;entryY=0.38;rounded=0;" edge="1" parent="1" target="E6k3J_O9naYXyknP14Ad-11">
          <mxGeometry relative="1" as="geometry">
            <Array as="points">
              <mxPoint x="2220" y="293" />
            </Array>
            <mxPoint x="3020.144149579786" y="163.98605004066576" as="sourcePoint" />
          </mxGeometry>
        </mxCell>
        <mxCell id="E6k3J_O9naYXyknP14Ad-29" value="" style="curved=1;startArrow=none;endArrow=block;exitX=0;exitY=0.61;entryX=0.71;entryY=-0.01;rounded=0;" edge="1" parent="1" target="E6k3J_O9naYXyknP14Ad-12">
          <mxGeometry relative="1" as="geometry">
            <Array as="points">
              <mxPoint x="2806" y="293" />
            </Array>
            <mxPoint x="3130.9534819299524" y="249.79069908854694" as="sourcePoint" />
          </mxGeometry>
        </mxCell>
        <mxCell id="E6k3J_O9naYXyknP14Ad-30" value="" style="curved=1;startArrow=none;endArrow=block;exitX=0;exitY=0.58;entryX=1;entryY=0.05;rounded=0;" edge="1" parent="1" target="E6k3J_O9naYXyknP14Ad-9">
          <mxGeometry relative="1" as="geometry">
            <Array as="points">
              <mxPoint x="2675" y="293" />
            </Array>
            <mxPoint x="3130.432096370502" y="246.9367663848045" as="sourcePoint" />
          </mxGeometry>
        </mxCell>
        <mxCell id="E6k3J_O9naYXyknP14Ad-31" value="" style="curved=1;startArrow=none;endArrow=block;exitX=0;exitY=0.55;entryX=1;entryY=0.28;rounded=0;" edge="1" parent="1" source="E6k3J_O9naYXyknP14Ad-39" target="E6k3J_O9naYXyknP14Ad-10">
          <mxGeometry relative="1" as="geometry">
            <Array as="points">
              <mxPoint x="2355" y="293" />
            </Array>
            <mxPoint x="3130.19374000905" y="244.98109853570236" as="sourcePoint" />
          </mxGeometry>
        </mxCell>
        <mxCell id="E6k3J_O9naYXyknP14Ad-32" value="&lt;&lt;include&gt;&gt;" style="curved=1;dashed=1;dashPattern=2 3;startArrow=none;endArrow=block;exitX=0.5;exitY=1;entryX=1;entryY=0.17;rounded=0;" edge="1" parent="1" source="E6k3J_O9naYXyknP14Ad-6" target="E6k3J_O9naYXyknP14Ad-13">
          <mxGeometry relative="1" as="geometry">
            <Array as="points">
              <mxPoint x="1154" y="293" />
            </Array>
          </mxGeometry>
        </mxCell>
        <mxCell id="E6k3J_O9naYXyknP14Ad-33" value="&lt;&lt;include&gt;&gt;" style="curved=1;dashed=1;dashPattern=2 3;startArrow=none;endArrow=block;exitX=0.35;exitY=1;entryX=1;entryY=0.29;rounded=0;" edge="1" parent="1" source="E6k3J_O9naYXyknP14Ad-6" target="E6k3J_O9naYXyknP14Ad-14">
          <mxGeometry x="0.0009" relative="1" as="geometry">
            <Array as="points">
              <mxPoint x="1071" y="293" />
              <mxPoint x="830" y="310" />
            </Array>
            <mxPoint as="offset" />
          </mxGeometry>
        </mxCell>
        <mxCell id="E6k3J_O9naYXyknP14Ad-34" value="&lt;&lt;extend&gt;&gt;" style="curved=1;dashed=1;dashPattern=2 3;startArrow=none;endArrow=block;exitX=0.5;exitY=0.99;entryX=0.5;entryY=0;rounded=0;" edge="1" parent="1" source="E6k3J_O9naYXyknP14Ad-12" target="E6k3J_O9naYXyknP14Ad-15">
          <mxGeometry relative="1" as="geometry">
            <Array as="points" />
          </mxGeometry>
        </mxCell>
        <mxCell id="E6k3J_O9naYXyknP14Ad-35" value="&lt;&lt;include&gt;&gt;" style="curved=1;dashed=1;dashPattern=2 3;startArrow=none;endArrow=block;exitX=0.2;exitY=1;entryX=1;entryY=0.34;rounded=0;" edge="1" parent="1" source="E6k3J_O9naYXyknP14Ad-6" target="E6k3J_O9naYXyknP14Ad-16">
          <mxGeometry relative="1" as="geometry">
            <Array as="points">
              <mxPoint x="987" y="293" />
            </Array>
          </mxGeometry>
        </mxCell>
        <mxCell id="E6k3J_O9naYXyknP14Ad-37" value="&lt;span style=&quot;text-wrap-mode: wrap;&quot;&gt;Solicitante&lt;/span&gt;" style="shape=umlActor;verticalLabelPosition=bottom;verticalAlign=top;html=1;outlineConnect=0;" vertex="1" parent="1">
          <mxGeometry x="2770" y="50" width="30" height="60" as="geometry" />
        </mxCell>
        <mxCell id="E6k3J_O9naYXyknP14Ad-38" value="&lt;span style=&quot;text-wrap-mode: wrap;&quot;&gt;Gestor&lt;/span&gt;" style="shape=umlActor;verticalLabelPosition=bottom;verticalAlign=top;html=1;outlineConnect=0;" vertex="1" parent="1">
          <mxGeometry x="3020" y="130" width="30" height="60" as="geometry" />
        </mxCell>
        <mxCell id="E6k3J_O9naYXyknP14Ad-39" value="&lt;span style=&quot;text-wrap-mode: wrap;&quot;&gt;Motorista&lt;/span&gt;" style="shape=umlActor;verticalLabelPosition=bottom;verticalAlign=top;html=1;outlineConnect=0;" vertex="1" parent="1">
          <mxGeometry x="3115.19374000905" y="214.98109853570236" width="30" height="60" as="geometry" />
        </mxCell>
      </root>
    </mxGraphModel>
  </diagram>
</mxfile>
